<?xml version="1.0" encoding="UTF-8"?>
<svg enable-background="new 328.2 90 425.5 792" version="1.1" viewBox="328.2 90 425.5 792" xml:space="preserve" xmlns="http://www.w3.org/2000/svg">
<g fill="#C6C6C6">
	<path d="m344.5 502.3c4 0 8.2-1.6 11.3-4.7l392.8-379.6c6.5-6.2 6.6-16.6 0.5-23-6.2-6.5-16.6-6.6-23-0.5l-392.9 379.6c-6.5 6.2-6.6 16.6-0.5 23 3.2 3.7 7.3 5.2 11.8 5.2z"/>
	<path d="m737.3 882c4.3 0 8.5-1.7 11.8-4.9 6.2-6.5 6.1-16.8-0.5-23l-392.8-379.8c-6.5-6.2-16.8-6.1-23 0.5-6.2 6.5-6.1 16.8 0.5 23l392.9 379.7c2.9 2.9 7.1 4.5 11.1 4.5z"/>
</g>
</svg>
