<?xml version="1.0" encoding="UTF-8"?>
<svg enable-background="new 328.1 89.9 425.5 792" version="1.1" viewBox="328.1 89.9 425.5 792" xml:space="preserve" xmlns="http://www.w3.org/2000/svg">
<g fill="#C6C6C6">
	<path d="m737.3 502.3c-4 0-8.2-1.6-11.3-4.7l-392.7-379.7c-6.5-6.2-6.6-16.6-0.5-23 6.2-6.5 16.6-6.6 23-0.5l392.8 379.6c6.5 6.2 6.6 16.6 0.5 23-3.3 3.8-7.4 5.3-11.8 5.3z"/>
	<path d="m344.5 881.9c-4.3 0-8.5-1.7-11.8-4.9-6.2-6.5-6.1-16.8 0.5-23l392.8-379.7c6.5-6.2 16.8-6.1 23 0.5 6.2 6.5 6.1 16.8-0.5 23l-392.7 379.4c-3.1 3.1-7.3 4.7-11.3 4.7z"/>
</g>
</svg>
